<?xml version="1.0" encoding="UTF-8" standalone="no"?>
<svg
   xmlns:dc="http://purl.org/dc/elements/1.1/"
   xmlns:cc="http://creativecommons.org/ns#"
   xmlns:rdf="http://www.w3.org/1999/02/22-rdf-syntax-ns#"
   xmlns:svg="http://www.w3.org/2000/svg"
   xmlns="http://www.w3.org/2000/svg"
   xmlns:xlink="http://www.w3.org/1999/xlink"
   xmlns:sodipodi="http://sodipodi.sourceforge.net/DTD/sodipodi-0.dtd"
   xmlns:inkscape="http://www.inkscape.org/namespaces/inkscape"
   viewBox="0 0 1895.3395 360.75101"
   id="svg3350"
   version="1.1"
   inkscape:version="0.91 r13725"
   sodipodi:docname="PyBELweb-paths.svg"
   width="1895.3395"
   height="380.64529"
   inkscape:export-filename="PyBEL-logotype-100.png"
   inkscape:export-xdpi="24.947956"
   inkscape:export-ydpi="24.947956">
  <metadata
     id="metadata3360">
    <rdf:RDF>
      <cc:Work
         rdf:about="">
        <dc:format>image/svg+xml</dc:format>
        <dc:type
           rdf:resource="http://purl.org/dc/dcmitype/StillImage" />
        <dc:title></dc:title>
        <cc:license
           rdf:resource="http://creativecommons.org/licenses/by/3.0/" />
      </cc:Work>
      <cc:License
         rdf:about="http://creativecommons.org/licenses/by/3.0/">
        <cc:permits
           rdf:resource="http://creativecommons.org/ns#Reproduction" />
        <cc:permits
           rdf:resource="http://creativecommons.org/ns#Distribution" />
        <cc:requires
           rdf:resource="http://creativecommons.org/ns#Notice" />
        <cc:requires
           rdf:resource="http://creativecommons.org/ns#Attribution" />
        <cc:permits
           rdf:resource="http://creativecommons.org/ns#DerivativeWorks" />
      </cc:License>
    </rdf:RDF>
  </metadata>
  <defs
     id="defs3358">
    <clipPath
       clipPathUnits="userSpaceOnUse"
       id="clipPath3412">
      <use
         x="0"
         y="0"
         xlink:href="#path3354"
         id="use3414"
         width="100%"
         height="100%"
         transform="translate(-21.796501,0)" />
    </clipPath>
    <clipPath
       clipPathUnits="userSpaceOnUse"
       id="clipPath3500">
      <use
         x="0"
         y="0"
         xlink:href="#path3354"
         id="use3502"
         width="100%"
         height="100%"
         transform="translate(12.000003,0)" />
    </clipPath>
    <clipPath
       clipPathUnits="userSpaceOnUse"
       id="clipPath4931">
      <path
         inkscape:connector-curvature="0"
         id="path4933"
         d="M 187.3833,-11.894267 17.67767,372.06472 345.06811,314.08196 281.4285,10.026043 Z"
         style="fill:none;fill-rule:evenodd;stroke:#000000;stroke-width:1px;stroke-linecap:butt;stroke-linejoin:miter;stroke-opacity:1" />
    </clipPath>
    <clipPath
       clipPathUnits="userSpaceOnUse"
       id="clipPath4935">
      <path
         style="fill:none;fill-rule:evenodd;stroke:#000000;stroke-width:1.36009729px;stroke-linecap:butt;stroke-linejoin:miter;stroke-opacity:1"
         d="M 372.4313,26.324307 141.61513,548.54589 -4.5684445,249.44661 86.79629,31.132977 Z"
         id="path4937"
         inkscape:connector-curvature="0"
         sodipodi:nodetypes="ccccc" />
    </clipPath>
  </defs>
  <sodipodi:namedview
     pagecolor="#ffffff"
     bordercolor="#666666"
     borderopacity="1"
     objecttolerance="10"
     gridtolerance="10"
     guidetolerance="10"
     inkscape:pageopacity="0"
     inkscape:pageshadow="2"
     inkscape:window-width="1440"
     inkscape:window-height="772"
     id="namedview3356"
     showgrid="false"
     fit-margin-top="8"
     fit-margin-left="8"
     fit-margin-right="8"
     fit-margin-bottom="8"
     inkscape:zoom="0.5"
     inkscape:cx="927.10568"
     inkscape:cy="362.63008"
     inkscape:window-x="0"
     inkscape:window-y="0"
     inkscape:window-maximized="0"
     inkscape:current-layer="svg3350"
     showguides="false" />
  <g
     style="font-style:normal;font-weight:normal;font-size:120px;line-height:125%;font-family:sans-serif;letter-spacing:0px;word-spacing:0px;fill-opacity:1;stroke:none;stroke-width:1px;stroke-linecap:butt;stroke-linejoin:miter;stroke-opacity:1"
     id="text3464">
    <path
       d="m 567.79514,127.79813 q 0,-10.2 -2.7,-16.2 -2.7,-6 -7.5,-9 -4.5,-3.300004 -11.1,-3.900004 -6.6,-0.9 -14.4,-0.6 -5.1,20.700004 -9.6,41.400004 -4.2,20.7 -8.4,41.7 2.4,0.3 4.5,0.6 2.4,0 5.7,0 11.4,0 19.5,-4.5 8.4,-4.5 13.5,-12 5.4,-7.5 7.8,-17.1 2.7,-9.9 2.7,-20.4 z m -56.4,68.4 q -5.4,21.6 -10.2,44.7 -4.8,22.8 -8.7,45 -6,-0.6 -12,-0.6 -5.7,0 -11.7,0 -7.5,0 -13.2,0 -5.4,0 -10.5,0.6 10.2,-37.8 19.2,-76.5 9.3,-38.7 17.1,-78.6 2.4,-12.6 4.8,-24.9 2.4,-12.300004 4.2,-24.900004 4.8,0.6 10.2,1.2 5.7,0.3 12.6,0.3 9.6,0 20.1,-0.6 10.5,-0.9 21.9,-0.9 26.1,0 41.7,12 15.6,11.700004 15.6,39.000004 0,17.1 -6.3,29.7 -6,12.3 -16.5,20.4 -10.5,7.8 -24.6,11.7 -13.8,3.9 -29.7,3.9 -7.2,0 -13.5,-0.3 -6,-0.6 -10.5,-1.2 z"
       style="font-style:italic;font-variant:normal;font-weight:bold;font-stretch:normal;font-size:300px;font-family:Optima;-inkscape-font-specification:'Optima Bold Italic'"
       id="path3394" />
    <path
       d="m 763.26077,144.29813 q -2.7,4.2 -5.1,7.8 -2.4,3.6 -5.1,7.8 -2.7,3.9 -5.7,8.7 -3,4.8 -6.9,11.4 -28.8,46.2 -56.7,90.9 -27.9,44.4 -54.3,91.8 -3.3,-0.6 -6.9,-1.2 -3.6,-0.3 -7.8,-0.3 -7.2,0 -13.2,1.5 5.7,-8.7 13.2,-19.5 7.8,-10.8 15.3,-21.6 7.5,-10.8 13.8,-20.7 6.6,-9.6 10.5,-15.6 -1.5,-7.5 -3.6,-19.5 -1.8,-12 -4.2,-25.2 -2.1,-13.2 -4.5,-26.4 -2.1,-13.5 -3.9,-24.3 -2.1,-12 -4.5,-23.7 -2.1,-11.7 -4.5,-23.7 4.2,0.6 9,1.2 5.1,0.3 11.1,0.3 5.7,0 11.1,-0.3 5.7,-0.6 10.5,-1.2 3.3,26.1 6.3,49.8 3,23.7 7.2,48.3 3,-4.8 9.9,-16.5 6.9,-12 15,-26.4 8.4,-14.7 16.5,-29.4 8.1,-15 13.5,-25.8 2.4,0.6 5.1,1.2 3,0.3 6.6,0.3 3.9,0 6.6,-0.3 3,-0.6 5.4,-1.2 l 0.3,1.8 0,0 z"
       style="font-style:italic;font-variant:normal;font-weight:bold;font-stretch:normal;font-size:300px;font-family:Optima;-inkscape-font-specification:'Optima Bold Italic'"
       id="path3396" />
    <path
       d="m 860.66077,220.19813 q 0,-5.4 -2.1,-13.5 -1.8,-8.1 -8.4,-14.1 -5.7,-4.8 -12.6,-5.7 -6.9,-0.9 -18.6,-0.9 -1.8,8.7 -4.5,20.1 -2.4,11.4 -5.1,23.4 -2.4,11.7 -4.5,22.5 -2.1,10.8 -3,18.3 2.1,0.3 3.9,0.6 2.1,0 3.6,0 l 6.6,0 q 11.1,0 19.5,-3.9 8.4,-3.9 13.8,-10.8 5.7,-6.9 8.4,-15.9 3,-9.3 3,-20.1 z m 16.8,-94.8 q 0,-8.7 -2.4,-13.8 -2.4,-5.4 -6.6,-8.4 -3.9,-3.300004 -9.3,-4.200004 -5.1,-1.2 -10.8,-1.2 l -5.4,0 q -1.5,0 -3,0.3 -1.2,0 -2.7,0.3 -2.4,8.700004 -4.8,19.200004 -2.4,10.2 -4.5,20.1 -1.8,9.9 -3.6,18.6 -1.5,8.4 -2.4,13.5 1.5,0.3 2.7,0.3 1.5,0 3,0 l 6,0 q 20.7,0 32.1,-12 11.7,-12 11.7,-32.7 z m -15.3,55.5 q 9,0.6 16.8,3.9 8.1,3 14.1,8.7 6.3,5.7 9.6,14.1 3.6,8.1 3.6,18.6 0,6 -1.5,12.6 -1.5,6.6 -4.8,12.9 -3,6.3 -8.4,12 -5.1,5.7 -12.3,10.2 -8.1,4.8 -16.5,7.5 -8.1,2.4 -15.6,3.3 -7.5,0.9 -13.8,0.9 -6.3,0.3 -10.5,0.3 -2.7,0 -9,-0.3 -6,0 -12.9,-0.3 -6.9,0 -12.9,0 -6,0 -8.4,0 -6.9,0 -13.8,0 -6.6,0 -13.5,0.6 5.4,-18 10.5,-39 5.1,-21 9.6,-42 4.8,-21 8.7,-40.8 3.9,-20.1 6.9,-36.6 3,-16.8 4.8,-28.800004 2.1,-12.3 2.7,-17.7 5.4,0.6 10.8,1.2 5.4,0.3 13.8,0.3 2.7,0 9,-0.3 6.6,-0.3 13.8,-0.3 7.2,-0.3 13.5,-0.6 6.6,-0.3 9,-0.3 2.7,0 7.8,0.3 5.4,0 11.7,1.2 6.3,1.2 12.6,3.9 6.6,2.4 11.7,7.2 5.4,4.5 8.7,11.700004 3.6,6.9 3.6,17.4 0,4.2 -1.5,12.3 -1.5,8.1 -7.5,16.8 -5.7,8.7 -17.7,16.2 -12,7.2 -32.7,9.9 l 0,3 z"
       style="font-style:italic;font-variant:normal;font-weight:bold;font-stretch:normal;font-size:300px;font-family:Optima;-inkscape-font-specification:'Optima Bold Italic'"
       id="path3398" />
    <path
       d="m 977.7592,80.998126 q 13.5,1.2 30.6,1.5 17.4,0 33.6,0 15.6,0 29.1,-0.3 13.8,-0.6 24,-1.2 -3.9,7.8 -4.8,12.3 -0.9,4.5 -0.3,10.800004 -6,-0.6 -11.4,-0.9 -5.4,-0.6 -12.9,-0.9 -7.5,-0.6 -18,-0.6 -10.2,-0.3 -26.1,-0.3 -5.1,18 -9.3,36 -3.9,18 -6.3,30 l 24.3,0 q 7.8,0 13.8,0 6.3,0 11.4,-0.3 5.1,-0.3 9.9,-0.6 4.8,-0.3 9.6,-0.6 -4.2,9 -4.8,13.8 -0.3,4.8 0,9.6 -15.6,-1.8 -33.9,-2.1 -18.3,-0.6 -34.5,-0.6 -4.2,19.8 -8.1,39.9 -3.6,19.8 -6,39.9 l 24,0 q 7.5,0 13.2,0 5.7,-0.3 10.8,-0.3 5.1,-0.3 10.2,-0.6 5.1,-0.6 11.4,-1.2 -3.9,9 -4.8,13.5 -0.6,4.5 0,8.1 -18,-0.6 -33.6,-0.6 -15.3,0 -28.8,0 -16.2,0 -30,0 -13.5,0 -25.5,0.6 3,-8.7 6.9,-24.6 4.2,-16.2 8.7,-35.7 4.5,-19.8 8.7,-41.1 4.5,-21.6 8.1,-41.1 3.9,-19.8 6.6,-36.3 3,-16.500004 4.2,-26.100004 z"
       style="font-style:italic;font-variant:normal;font-weight:bold;font-stretch:normal;font-size:300px;font-family:Optima;-inkscape-font-specification:'Optima Bold Italic'"
       id="path3400" />
    <path
       d="m 1135.7186,80.998126 q 5.7,0.6 12.3,1.2 6.6,0.3 13.5,0.3 6.6,0 12.6,-0.3 6.3,-0.6 11.4,-1.2 -4.5,15.3 -9,33.300004 -4.5,18 -9,36.6 -4.2,18.3 -8.1,36.3 -3.6,18 -6.9,33.3 -3,15.3 -5.1,27.3 -2.1,11.7 -3,18 l 22.8,0 q 15.3,0 26.1,-0.3 11.1,-0.3 21.9,-1.2 -3,6.3 -4.2,11.1 -0.9,4.5 -0.9,10.5 -15.3,-0.6 -30.6,-0.6 -15.3,0 -30.6,0 -16.5,0 -31.5,0 -14.7,0 -25.2,0.6 7.2,-23.7 13.8,-52.5 6.6,-29.1 12.6,-57.3 5.1,-23.7 9,-47.1 4.2,-23.7 8.1,-48.000004 z"
       style="font-style:italic;font-variant:normal;font-weight:bold;font-stretch:normal;font-size:300px;font-family:Optima;-inkscape-font-specification:'Optima Bold Italic'"
       id="path3402" />
    <path
       d="m 1343.4217,80.998126 q 5.4,0.6 10.8,1.2 5.4,0.3 12.9,0.3 7.8,0 13.8,-0.3 6.3,-0.6 11.1,-1.2 0.9,20.700004 2.4,43.200004 1.8,22.2 3.6,42.6 1.8,20.4 3.6,36.9 1.8,16.2 3.3,24.6 6.3,-12 13.2,-25.8 7.2,-14.1 14.4,-28.5 7.2,-14.4 13.8,-28.5 6.9,-14.1 12.6,-26.4 6,-12.3 10.5,-22.200004 4.5,-9.9 6.9,-15.9 7.5,1.5 15.3,1.5 4.8,0 8.1,-0.3 3.6,-0.6 6.9,-1.2 0.9,16.5 2.7,36.300004 2.1,19.5 4.5,39.3 2.4,19.8 4.8,38.7 2.7,18.6 5.1,33.3 9.3,-18 19.2,-39.6 10.2,-21.9 19.2,-42.6 9,-21 16.2,-38.4 7.5,-17.400004 11.4,-27.000004 6.6,1.5 14.4,1.5 3.6,0 6.9,-0.3 3.6,-0.6 6.9,-1.2 -2.1,3.6 -4.2,7.5 -2.1,3.6 -5.1,9 -2.7,5.400004 -6.6,13.200004 -3.9,7.8 -9.6,19.5 -12,24.3 -23.7,48 -11.7,23.7 -23.7,48 -7.5,15.3 -14.7,30.3 -6.9,14.7 -14.1,29.4 -3.9,-0.6 -7.2,-0.6 -3,0 -7.2,0 -10.2,0 -15.3,0.6 -1.5,-19.2 -3.9,-40.8 -2.4,-21.6 -5.1,-40.8 -2.7,-19.5 -5.1,-34.5 -2.4,-15.3 -3.6,-22.5 -5.4,9.3 -14.1,26.1 -8.7,16.8 -18.6,36.6 -9.9,19.5 -19.8,39.9 -9.9,20.4 -17.4,36 -5.1,-0.6 -13.8,-0.6 -10.5,0 -16.5,0.6 -0.3,-5.1 -1.8,-18.3 -1.2,-13.2 -3.3,-30.9 -1.8,-17.7 -4.5,-38.4 -2.4,-20.7 -5.1,-41.4 -2.7,-21 -5.4,-40.5 -2.7,-19.800004 -5.1,-35.400004 z"
       style="letter-spacing:-5px"
       id="path3404" />
    <path
       d="m 1686.3395,176.39813 q 0,-9.6 -3.9,-16.8 -3.9,-7.2 -15,-7.2 -7.5,0 -13.2,4.2 -5.4,4.2 -9.6,11.1 -3.9,6.9 -6.6,15.9 -2.7,8.7 -4.8,17.7 2.4,0.3 5.1,0.6 2.7,0 5.1,0 l 11.1,0 12.3,0 q 3.3,0 7.5,0 4.2,-0.3 9,-0.6 0.9,-3.9 1.8,-10.5 1.2,-6.6 1.2,-14.4 z m 21.6,80.1 q -1.5,3.6 -3,7.8 -1.5,4.2 -3.9,12.6 -9.6,6.9 -21.3,9 -11.7,2.1 -23.7,2.1 -17.4,0 -30.3,-5.1 -12.9,-5.4 -21.3,-14.7 -8.1,-9.3 -12.3,-21.3 -3.9,-12.3 -3.9,-25.5 0,-14.7 4.8,-29.4 5.1,-14.7 15,-26.4 9.9,-11.7 24.6,-18.9 14.7,-7.5 34.2,-7.5 27.9,0 42,15 14.4,14.7 14.4,38.7 0,5.7 -0.9,11.7 -0.6,5.7 -1.5,11.4 -18.9,-0.6 -31.8,-0.9 -12.9,-0.3 -22.8,-0.3 l -13.8,0 q -3.9,0 -9.3,0 -5.1,0 -12,0.3 -0.6,3.6 -0.9,7.8 -0.3,4.2 -0.3,8.4 0,18 8.4,28.8 8.4,10.8 27.3,10.8 8.4,0 18.6,-3.6 10.5,-3.9 19.2,-12.9 l 4.5,2.1 z"
       style="font-style:italic;font-variant:normal;font-weight:bold;font-stretch:normal;font-size:300px;font-family:Optima;-inkscape-font-specification:'Optima Bold Italic'"
       id="path3406" />
    <path
       d="m 1778.4395,247.19813 q 0,5.4 1.5,10.5 1.5,4.8 4.5,8.7 3,3.9 7.5,6.3 4.5,2.4 10.2,2.4 7.5,0 13.5,-4.8 6.3,-5.1 11.1,-12.9 4.8,-7.8 8.1,-17.4 3.6,-9.6 6,-19.2 2.4,-9.6 3.3,-17.7 1.2,-8.4 1.2,-13.5 0,-6 -1.5,-11.7 -1.2,-5.7 -4.2,-9.9 -2.7,-4.5 -7.5,-6.9 -4.8,-2.7 -11.7,-2.7 -10.2,0 -15.9,6.3 -5.7,6.3 -8.7,12.6 -3.3,6.6 -6.6,15.9 -3,9 -5.4,18.6 -2.4,9.6 -3.9,19.2 -1.5,9.3 -1.5,16.2 z m -50.7,38.1 q 4.2,-14.7 8.7,-33.6 4.8,-19.2 9.3,-39.9 4.8,-20.7 9.3,-42 4.5,-21.6 8.4,-41.7 3.9,-20.1 6.9,-37.500004 3,-17.7 4.8,-30.6 4.8,0.6 9.9,1.2 5.1,0.3 11.7,0.3 6,0 11.7,-0.3 6,-0.6 10.5,-1.2 -3,10.5 -6.6,24.6 -3.3,14.1 -6.6,28.200004 -3.3,13.8 -6,25.8 -2.4,11.7 -3.6,17.7 2.1,-2.1 5.1,-5.1 3,-3 7.5,-5.7 4.8,-2.7 11.4,-4.5 6.6,-2.1 15.6,-2.1 16.2,0 26.1,6.3 10.2,6.3 15.6,15.3 5.7,9 7.8,18.9 2.1,9.9 2.1,16.8 0,13.5 -4.5,29.7 -4.5,16.2 -14.1,30.3 -9.3,14.1 -24,23.4 -14.4,9 -34.8,9 -11.4,0 -19.2,-2.7 -7.8,-2.4 -12.9,-6.3 -5.1,-4.2 -7.8,-8.4 -2.7,-4.2 -3.9,-6.9 -8.7,4.2 -16.8,9.6 -7.8,5.4 -15.6,11.4 l -6,0 z"
       style="font-style:italic;font-variant:normal;font-weight:bold;font-stretch:normal;font-size:300px;font-family:Optima;-inkscape-font-specification:'Optima Bold Italic'"
       id="path3408" />
  </g>
  <g
     id="g4939"
     transform="translate(92.443651,9.9471232)">
    <path
       clip-path="url(#clipPath4931)"
       sodipodi:nodetypes="cccccccccsccccccccccccccsscccccccccccccccccc"
       style="fill:#000000"
       inkscape:connector-curvature="0"
       id="path3354"
       d="m 167.23673,8.001 c -20.11015,-0.003 -36.63967,14.28 -36.63504,31.656 0,7.617 3.16287,14.64 8.42504,20.125 -12.48711,3.876 -22.03819,10.963 -31.13793,22.06 -15.110673,18.43 -27.412621,49.03 -40.974853,92.782 -11.87028,38.29 -28.174121,57.012 -40.108052,70.563 -11.931616,13.55 -18.8082094,20.325 -18.8058944,42.688 0.0023,3.5 2.2856404,7.314 9.7674924,12.03 7.479538,4.717 19.796677,8.48656 34.608631,13.36478 30.15308,7.612 72.263236,11.78522 116.017896,11.79322 22.43282,0.004 44.40274,-1.15 64.55339,-3.28 l 0,0.124 c 14.03788,-1.043 38.57465,-3.898 59.42084,-10.28 6.70647,-2.055 13.05418,-4.422 18.66123,-7.533 3.02283,-1.376 5.7251,-2.747 7.95634,-4.155 7.47375,-4.714 9.76518,-8.523 9.76518,-12.03 -0.005,-22.363 -6.86849,-29.135 -18.80589,-42.69 -11.93856,-13.553 -28.26092,-32.27 -40.14393,-70.56 -13.57728,-43.757 -25.85724,-74.35 -40.97486,-92.782 -9.51867,-11.607 -19.55234,-18.836 -32.91089,-22.594 4.9879,-5.41 7.99453,-12.24 7.99221,-19.626 -0.002,-17.377 -16.9143,-30.7701165 -36.84769,-30.7731165 z m 0,18.687 c 8.42273,0 15.04472,5.694 15.04472,12.97 0,7.272 -6.62199,12.97 -15.04472,12.968 -8.42272,-0.002 -15.00768,-5.696 -15.01,-12.97 0,-7.273 6.58843,-12.97 15.01,-12.968 z m 10.67018,43.22 c 40.0606,10.188 57.35508,64.686 67.26607,101.56 17.34771,64.56 52.83241,82.98 61.37086,111.25 -0.37843,0.633 -1.1596,1.286 -2.42335,2.408 -3.08417,2.74 -10.20263,6.216 -18.98643,8.906 -8.52457,2.61 -18.51657,4.614 -27.99243,6.124 -2.0021,-38.024 -39.07575,-53.55 -38.47975,-107.47 0.69784,-63.043 -19.89374,-103.352 -45.71279,-121.78 1.6989,-0.233 3.33993,-0.57 4.9555,-1 z M 42.718574,330.063 c 1.409574,12.736 13.822621,22.686 28.932144,22.688 10.903946,0 20.416839,-5.173 25.390849,-12.844 -18.50037,-2.11 -35.671019,-5.08 -50.705318,-8.875 -1.226722,-0.31 -2.418727,-0.65 -3.616517,-0.97 z" />
    <g
       clip-path="url(#clipPath4935)"
       style="fill:#000000"
       transform="matrix(0.73524151,0,0,0.73524151,-84.443651,-31.24899)"
       id="g4887">
      <path
         style="opacity:0;fill:#000000"
         inkscape:connector-curvature="0"
         d="m 0,0 512,0 0,512 -512,0 z"
         id="path4875" />
      <g
         style="fill:#000000"
         class=""
         id="g4877">
        <path
           style="fill:#000000"
           inkscape:connector-curvature="0"
           d="M 256,32 A 224,224 0 0 0 32,256 224,224 0 0 0 256,480 224,224 0 0 0 479.672,262.55 c -15.468,4.148 -0.306,0.22 -16.467,4.51 -9.1,-2.965 -28.42,10.264 -29.197,10.264 -1.756,0 -14.65,-49.66 -14.65,-49.66 L 381.08,208 368,208 l -1.316,6.32 30.2,28.444 -47.76,20.718 -35.466,-49.162 -5.24,2.328 11.21,36.3 42.84,23.177 -42.84,50.568 1.403,35.82 -31.276,67.182 -52.168,-6.716 -16,-88.843 -3.094,-33.43 -71.517,-3.838 -9.258,-60.77 32.314,-35.827 54.782,-6.32 40.034,21.772 36.93,-9.72 c -1.112,-18.374 0.05,-12.54 -1.112,-18.374 l -19.666,-0.7 -1.053,-10.184 -5.97,-2.107 -2.81,12.64 -9.48,-0.526 -11.94,-26.514 -8.43,2.81 10.185,22.475 -9.13,3.16 -13.694,-20.718 -8.428,-1.406 -21.773,2.81 -18.26,23.177 -18.613,1.406 -1.405,-34.064 24.23,-1.757 2.108,-10.184 -5.795,-5.618 -0.174,-3.69 16.182,-7.94 11.56,-2.944 19.665,-6.848 6.32,-7.375 3.512,7.375 22.474,2.81 8.78,-9.13 5.97,-24.582 -6.673,-2.81 -11.238,16.857 -8.43,-9.834 -11.586,14.75 -14.4,2.458 -0.7,-10.184 11.236,-23.88 31.606,-13.694 43.894,-3.16 3.864,13.344 c 0,0 -4.916,13.344 -5.97,13.695 -0.138,0.045 0.428,1.754 1.464,4.565 l 31.195,0 14.047,-11.59 29.484,-9.138 A 224,224 0 0 0 256,32 Z m -110.902,37.465 6.144,1.053 c 0,0 1.756,8.076 0.352,10.007 -1.405,1.932 -10.885,7.903 -10.885,7.903 l -6.148,-12.115 10.536,-6.848 z m 41.086,11.588 8.252,19.49 3.337,16.68 c 0,0 -11.588,5.793 -12.466,6.496 -0.878,0.7 -6.147,-8.077 -6.147,-8.077 l -1.93,-17.91 2.81,-15.1 6.144,-1.58 z m -12.116,22.474 0,16.155 -10.007,3.86 -2.107,-7.724 12.115,-12.29 z m 189.104,238.618 -7.365,61.798 -16.164,3.166 c 0,0 4.868,-50.492 7.326,-53.3 l 16.202,-11.665 z"
           id="path4879" />
      </g>
    </g>
  </g>
</svg>
