<?xml version="1.0" encoding="UTF-8" standalone="no"?>
<svg
   xmlns:dc="http://purl.org/dc/elements/1.1/"
   xmlns:cc="http://creativecommons.org/ns#"
   xmlns:rdf="http://www.w3.org/1999/02/22-rdf-syntax-ns#"
   xmlns:svg="http://www.w3.org/2000/svg"
   xmlns="http://www.w3.org/2000/svg"
   xmlns:xlink="http://www.w3.org/1999/xlink"
   xmlns:sodipodi="http://sodipodi.sourceforge.net/DTD/sodipodi-0.dtd"
   xmlns:inkscape="http://www.inkscape.org/namespaces/inkscape"
   viewBox="0 0 1926.8578 360.75196"
   id="svg3350"
   version="1.1"
   inkscape:version="0.92.2 5c3e80d, 2017-08-06"
   sodipodi:docname="PyBELtools-logotype-paths.svg"
   width="1926.8578"
   height="360.75195"
   inkscape:export-filename="PyBELtools-logotype-1024.png"
   inkscape:export-xdpi="272.4975"
   inkscape:export-ydpi="272.4975">
  <metadata
     id="metadata3360">
    <rdf:RDF>
      <cc:Work
         rdf:about="">
        <dc:format>image/svg+xml</dc:format>
        <dc:type
           rdf:resource="http://purl.org/dc/dcmitype/StillImage" />
        <dc:title></dc:title>
        <cc:license
           rdf:resource="http://creativecommons.org/licenses/by/3.0/" />
      </cc:Work>
      <cc:License
         rdf:about="http://creativecommons.org/licenses/by/3.0/">
        <cc:permits
           rdf:resource="http://creativecommons.org/ns#Reproduction" />
        <cc:permits
           rdf:resource="http://creativecommons.org/ns#Distribution" />
        <cc:requires
           rdf:resource="http://creativecommons.org/ns#Notice" />
        <cc:requires
           rdf:resource="http://creativecommons.org/ns#Attribution" />
        <cc:permits
           rdf:resource="http://creativecommons.org/ns#DerivativeWorks" />
      </cc:License>
    </rdf:RDF>
  </metadata>
  <defs
     id="defs3358">
    <clipPath
       clipPathUnits="userSpaceOnUse"
       id="clipPath3412">
      <use
         x="0"
         y="0"
         xlink:href="#path3354"
         id="use3414"
         width="100%"
         height="100%"
         transform="translate(-21.796502)" />
    </clipPath>
    <clipPath
       clipPathUnits="userSpaceOnUse"
       id="clipPath3500">
      <use
         x="0"
         y="0"
         xlink:href="#path3354"
         id="use3502"
         width="100%"
         height="100%"
         transform="translate(12.000002)" />
    </clipPath>
  </defs>
  <sodipodi:namedview
     pagecolor="#ffffff"
     bordercolor="#666666"
     borderopacity="1"
     objecttolerance="10"
     gridtolerance="10"
     guidetolerance="10"
     inkscape:pageopacity="0"
     inkscape:pageshadow="2"
     inkscape:window-width="1440"
     inkscape:window-height="772"
     id="namedview3356"
     showgrid="false"
     fit-margin-top="8"
     fit-margin-left="8"
     fit-margin-right="8"
     fit-margin-bottom="8"
     inkscape:zoom="0.48440281"
     inkscape:cx="514.63985"
     inkscape:cy="173.25152"
     inkscape:window-x="0"
     inkscape:window-y="0"
     inkscape:window-maximized="0"
     inkscape:current-layer="svg3350"
     showguides="false" />
  <g
     aria-label="PyBEL Tools"
     style="font-style:normal;font-weight:normal;line-height:0%;font-family:sans-serif;letter-spacing:0px;word-spacing:0px;fill-opacity:1;stroke:none;stroke-width:1px;stroke-linecap:butt;stroke-linejoin:miter;stroke-opacity:1"
     id="text3464">
    <path
       d="m 475.35148,117.85101 q 0,-10.2 -2.7,-16.2 -2.7,-5.999997 -7.5,-8.999997 -4.5,-3.3 -11.1,-3.9 -6.6,-0.9 -14.4,-0.6 -5.1,20.699997 -9.6,41.399997 -4.2,20.7 -8.4,41.7 2.4,0.3 4.5,0.6 2.4,0 5.7,0 11.4,0 19.5,-4.5 8.4,-4.5 13.5,-12 5.4,-7.5 7.8,-17.1 2.7,-9.9 2.7,-20.4 z m -56.4,68.4 q -5.4,21.6 -10.2,44.7 -4.8,22.8 -8.7,45 -6,-0.6 -12,-0.6 -5.7,0 -11.7,0 -7.5,0 -13.2,0 -5.4,0 -10.5,0.6 10.2,-37.8 19.2,-76.5 9.3,-38.7 17.1,-78.6 2.4,-12.6 4.8,-24.899997 2.4,-12.3 4.2,-24.9 4.8,0.6 10.2,1.2 5.7,0.3 12.6,0.3 9.6,0 20.1,-0.6 10.5,-0.9 21.9,-0.9 26.1,0 41.7,12 15.6,11.7 15.6,38.999997 0,17.1 -6.3,29.7 -6,12.3 -16.5,20.4 -10.5,7.8 -24.6,11.7 -13.8,3.9 -29.7,3.9 -7.2,0 -13.5,-0.3 -6,-0.6 -10.5,-1.2 z"
       style="font-style:italic;font-variant:normal;font-weight:bold;font-stretch:normal;font-size:300px;line-height:1.25;font-family:Optima;-inkscape-font-specification:'Optima Bold Italic'"
       id="path4492" />
    <path
       d="m 670.8171,134.35101 q -2.7,4.2 -5.1,7.8 -2.4,3.6 -5.1,7.8 -2.7,3.9 -5.7,8.7 -3,4.8 -6.9,11.4 -28.8,46.2 -56.7,90.9 -27.9,44.4 -54.3,91.8 -3.3,-0.6 -6.9,-1.2 -3.6,-0.3 -7.8,-0.3 -7.2,0 -13.2,1.5 5.7,-8.7 13.2,-19.5 7.8,-10.8 15.3,-21.6 7.5,-10.8 13.8,-20.7 6.6,-9.6 10.5,-15.6 -1.5,-7.5 -3.6,-19.5 -1.8,-12 -4.2,-25.2 -2.1,-13.2 -4.5,-26.4 -2.1,-13.5 -3.9,-24.3 -2.1,-12 -4.5,-23.7 -2.1,-11.7 -4.5,-23.7 4.2,0.6 9,1.2 5.1,0.3 11.1,0.3 5.7,0 11.1,-0.3 5.7,-0.6 10.5,-1.2 3.3,26.1 6.3,49.8 3,23.7 7.2,48.3 3,-4.8 9.9,-16.5 6.9,-12 15,-26.4 8.4,-14.7 16.5,-29.4 8.1,-15 13.5,-25.8 2.4,0.6 5.1,1.2 3,0.3 6.6,0.3 3.9,0 6.6,-0.3 3,-0.6 5.4,-1.2 l 0.3,1.8 z"
       style="font-style:italic;font-variant:normal;font-weight:bold;font-stretch:normal;font-size:300px;line-height:1.25;font-family:Optima;-inkscape-font-specification:'Optima Bold Italic'"
       id="path4494" />
    <path
       d="m 768.2171,210.25101 q 0,-5.4 -2.1,-13.5 -1.8,-8.1 -8.4,-14.1 -5.7,-4.8 -12.6,-5.7 -6.9,-0.9 -18.6,-0.9 -1.8,8.7 -4.5,20.1 -2.4,11.4 -5.1,23.4 -2.4,11.7 -4.5,22.5 -2.1,10.8 -3,18.3 2.1,0.3 3.9,0.6 2.1,0 3.6,0 h 6.6 q 11.1,0 19.5,-3.9 8.4,-3.9 13.8,-10.8 5.7,-6.9 8.4,-15.9 3,-9.3 3,-20.1 z m 16.8,-94.8 q 0,-8.7 -2.4,-13.8 -2.4,-5.399997 -6.6,-8.399997 -3.9,-3.3 -9.3,-4.2 -5.1,-1.2 -10.8,-1.2 h -5.4 q -1.5,0 -3,0.3 -1.2,0 -2.7,0.3 -2.4,8.7 -4.8,19.199997 -2.4,10.2 -4.5,20.1 -1.8,9.9 -3.6,18.6 -1.5,8.4 -2.4,13.5 1.5,0.3 2.7,0.3 1.5,0 3,0 h 6 q 20.7,0 32.1,-12 11.7,-12 11.7,-32.7 z m -15.3,55.5 q 9,0.6 16.8,3.9 8.1,3 14.1,8.7 6.3,5.7 9.6,14.1 3.6,8.1 3.6,18.6 0,6 -1.5,12.6 -1.5,6.6 -4.8,12.9 -3,6.3 -8.4,12 -5.1,5.7 -12.3,10.2 -8.1,4.8 -16.5,7.5 -8.1,2.4 -15.6,3.3 -7.5,0.9 -13.8,0.9 -6.3,0.3 -10.5,0.3 -2.7,0 -9,-0.3 -6,0 -12.9,-0.3 -6.9,0 -12.9,0 -6,0 -8.4,0 -6.9,0 -13.8,0 -6.6,0 -13.5,0.6 5.4,-18 10.5,-39 5.1,-21 9.6,-42 4.8,-21 8.7,-40.8 3.9,-20.1 6.9,-36.6 3,-16.8 4.8,-28.799997 2.1,-12.3 2.7,-17.7 5.4,0.6 10.8,1.2 5.4,0.3 13.8,0.3 2.7,0 9,-0.3 6.6,-0.3 13.8,-0.3 7.2,-0.3 13.5,-0.6 6.6,-0.3 9,-0.3 2.7,0 7.8,0.3 5.4,0 11.7,1.2 6.3,1.2 12.6,3.9 6.6,2.4 11.7,7.2 5.4,4.5 8.7,11.7 3.6,6.899997 3.6,17.399997 0,4.2 -1.5,12.3 -1.5,8.1 -7.5,16.8 -5.7,8.7 -17.7,16.2 -12,7.2 -32.7,9.9 z"
       style="font-style:italic;font-variant:normal;font-weight:bold;font-stretch:normal;font-size:300px;line-height:1.25;font-family:Optima;-inkscape-font-specification:'Optima Bold Italic'"
       id="path4496" />
    <path
       d="m 885.31554,71.051013 q 13.5,1.2 30.6,1.5 17.4,0 33.6,0 15.6,0 29.1,-0.3 13.8,-0.6 23.99996,-1.2 -3.89996,7.8 -4.79996,12.3 -0.9,4.5 -0.3,10.8 -6,-0.6 -11.4,-0.9 -5.4,-0.6 -12.9,-0.9 -7.5,-0.6 -18,-0.6 -10.2,-0.3 -26.1,-0.3 -5.1,17.999997 -9.3,35.999997 -3.9,18 -6.3,30 h 24.3 q 7.8,0 13.8,0 6.3,0 11.4,-0.3 5.1,-0.3 9.9,-0.6 4.8,-0.3 9.6,-0.6 -4.2,9 -4.8,13.8 -0.3,4.8 0,9.6 -15.6,-1.8 -33.9,-2.1 -18.3,-0.6 -34.5,-0.6 -4.2,19.8 -8.1,39.9 -3.6,19.8 -6,39.9 h 24 q 7.5,0 13.2,0 5.7,-0.3 10.8,-0.3 5.1,-0.3 10.2,-0.6 5.1,-0.6 11.4,-1.2 -3.9,9 -4.8,13.5 -0.6,4.5 0,8.1 -18,-0.6 -33.6,-0.6 -15.3,0 -28.8,0 -16.2,0 -30,0 -13.5,0 -25.5,0.6 3,-8.7 6.9,-24.6 4.2,-16.2 8.7,-35.7 4.5,-19.8 8.7,-41.1 4.5,-21.6 8.1,-41.1 3.9,-19.8 6.6,-36.299997 3,-16.5 4.2,-26.1 z"
       style="font-style:italic;font-variant:normal;font-weight:bold;font-stretch:normal;font-size:300px;line-height:1.25;font-family:Optima;-inkscape-font-specification:'Optima Bold Italic'"
       id="path4498" />
    <path
       d="m 1043.2749,71.051013 q 5.7,0.6 12.3,1.2 6.6,0.3 13.5,0.3 6.6,0 12.6,-0.3 6.3,-0.6 11.4,-1.2 -4.5,15.3 -9,33.299997 -4.5,18 -9,36.6 -4.2,18.3 -8.1,36.3 -3.6,18 -6.9,33.3 -3,15.3 -5.1,27.3 -2.1,11.7 -3,18 h 22.8 q 15.3,0 26.1,-0.3 11.1,-0.3 21.9,-1.2 -3,6.3 -4.2,11.1 -0.9,4.5 -0.9,10.5 -15.3,-0.6 -30.6,-0.6 -15.3,0 -30.6,0 -16.5,0 -31.5,0 -14.7,0 -25.19999,0.6 7.19999,-23.7 13.79999,-52.5 6.6,-29.1 12.6,-57.3 5.1,-23.7 9,-47.1 4.2,-23.699997 8.1,-47.999997 z"
       style="font-style:italic;font-variant:normal;font-weight:bold;font-stretch:normal;font-size:300px;line-height:1.25;font-family:Optima;-inkscape-font-specification:'Optima Bold Italic'"
       id="path4500" />
    <path
       d="m 1253.678,71.051013 q 18,0.6 36,1.2 18.3,0.3 38.1,0.3 h 18.9 q 7.8,0 16.2,0 8.4,0 16.2,-0.3 8.1,-0.3 15.3,-0.6 7.2,-0.3 12.6,-0.6 -2.4,6.3 -3.3,11.1 -0.9,4.5 -1.8,12.9 -14.4,-1.5 -26.4,-1.8 -12,-0.6 -22.5,-0.6 -4.5,17.099997 -9.6,36.299997 -4.8,19.2 -10.5,44.7 -5.7,26.1 -11.1,51.3 -5.4,25.2 -9.3,51 -6.6,-0.6 -12.9,-0.6 -6.3,0 -12.6,0 -6.3,0 -12.6,0 -6,0 -11.1,0.6 6.9,-25.8 13.8,-52.2 6.9,-26.7 12.6,-54 4.2,-19.2 7.8,-38.1 3.9,-19.2 7.2,-38.999997 h -15.6 q -10.8,0 -20.1,0.6 -9.3,0.3 -20.7,1.2 2.4,-6.9 3.6,-11.4 1.2,-4.8 1.8,-12 z"
       style="font-style:italic;font-variant:normal;font-weight:bold;font-stretch:normal;font-size:300px;line-height:1.25;font-family:Optima;-inkscape-font-specification:'Optima Bold Italic'"
       id="path4502" />
    <path
       d="m 1435.9702,232.15101 q 0,6.3 0.9,12.9 0.9,6.6 3.3,12 2.7,5.1 7.2,8.4 4.8,3.3 12.3,3.3 8.7,0 15.6,-4.8 6.9,-5.1 12,-13.2 5.1,-8.1 8.7,-18 3.6,-10.2 5.7,-20.1 2.4,-10.2 3.3,-19.2 1.2,-9.3 1.2,-15.3 0,-6.3 -0.9,-12.9 -0.9,-6.6 -3.6,-11.7 -2.4,-5.4 -7.2,-8.7 -4.5,-3.3 -12,-3.3 -8.7,0 -15.6,5.1 -6.9,4.8 -12,12.9 -5.1,8.1 -8.7,18.3 -3.6,9.9 -6,20.1 -2.1,9.9 -3.3,19.2 -0.9,9 -0.9,15 z m -41.1,-15.3 q 0,-18.3 6.6,-34.2 6.9,-15.9 18.6,-27.6 11.7,-12 27.6,-18.6 15.9,-6.9 34.2,-6.9 16.2,0 28.2,4.8 12.3,4.5 20.4,13.2 8.4,8.4 12.6,20.4 4.2,11.7 4.2,26.1 0,18.3 -7.2,34.2 -7.2,15.6 -19.5,27.3 -12,11.7 -28.2,18 -15.9,6.3 -33.9,6.3 -14.4,0 -26.1,-4.5 -11.7,-4.2 -20.1,-12.6 -8.4,-8.4 -12.9,-20.1 -4.5,-11.7 -4.5,-25.8 z"
       style="font-style:italic;font-variant:normal;font-weight:bold;font-stretch:normal;font-size:300px;line-height:1.25;font-family:Optima;-inkscape-font-specification:'Optima Bold Italic'"
       id="path4504" />
    <path
       d="m 1602.9624,232.15101 q 0,6.3 0.9,12.9 0.9,6.6 3.3,12 2.7,5.1 7.2,8.4 4.8,3.3 12.3,3.3 8.7,0 15.6,-4.8 6.9,-5.1 12,-13.2 5.1,-8.1 8.7,-18 3.6,-10.2 5.7,-20.1 2.4,-10.2 3.3,-19.2 1.2,-9.3 1.2,-15.3 0,-6.3 -0.9,-12.9 -0.9,-6.6 -3.6,-11.7 -2.4,-5.4 -7.2,-8.7 -4.5,-3.3 -12,-3.3 -8.7,0 -15.6,5.1 -6.9,4.8 -12,12.9 -5.1,8.1 -8.7,18.3 -3.6,9.9 -6,20.1 -2.1,9.9 -3.3,19.2 -0.9,9 -0.9,15 z m -41.1,-15.3 q 0,-18.3 6.6,-34.2 6.9,-15.9 18.6,-27.6 11.7,-12 27.6,-18.6 15.9,-6.9 34.2,-6.9 16.2,0 28.2,4.8 12.3,4.5 20.4,13.2 8.4,8.4 12.6,20.4 4.2,11.7 4.2,26.1 0,18.3 -7.2,34.2 -7.2,15.6 -19.5,27.3 -12,11.7 -28.2,18 -15.9,6.3 -33.9,6.3 -14.4,0 -26.1,-4.5 -11.7,-4.2 -20.1,-12.6 -8.4,-8.4 -12.9,-20.1 -4.5,-11.7 -4.5,-25.8 z"
       style="font-style:italic;font-variant:normal;font-weight:bold;font-stretch:normal;font-size:300px;line-height:1.25;font-family:Optima;-inkscape-font-specification:'Optima Bold Italic'"
       id="path4506" />
    <path
       d="m 1774.1546,50.051013 q 5.4,0.6 10.8,1.2 5.7,0.3 12.6,0.3 6.3,0 11.4,-0.3 5.4,-0.3 11.4,-1.2 -3.6,14.4 -6.9,27.3 -3.3,12.9 -6.6,26.099997 -3.3,12.9 -6.6,27 -3.3,13.8 -6.9,30.3 -6,29.1 -12,57.6 -5.7,28.2 -10.8,57.6 -5.1,-0.6 -10.8,-0.6 -5.4,0 -12.6,0 -6,0 -11.4,0 -5.4,0 -11.4,0.6 4.2,-13.2 9,-31.8 4.8,-18.9 9.6,-39.9 4.8,-21 9.3,-42.9 4.8,-22.2 9,-42.6 4.2,-20.699997 7.5,-38.399997 3.3,-18 5.4,-30.3 z"
       style="font-style:italic;font-variant:normal;font-weight:bold;font-stretch:normal;font-size:300px;line-height:1.25;font-family:Optima;-inkscape-font-specification:'Optima Bold Italic'"
       id="path4508" />
    <path
       d="m 1903.8577,169.15101 q -0.6,-2.7 -2.1,-6.9 -1.2,-4.2 -4.5,-8.4 -3.3,-4.2 -9,-7.2 -5.4,-3 -14.4,-3 -11.7,0 -18.3,5.7 -6.3,5.4 -6.3,13.2 0,3.9 1.5,6.9 1.5,3 5.1,6 3.9,3 10.2,6.6 6.3,3.3 15.6,8.1 12,6.6 20.4,15.6 8.4,9 8.4,24 0,13.2 -5.4,22.8 -5.4,9.6 -14.4,15.9 -9,6 -20.4,8.7 -11.1,2.7 -22.8,2.7 -10.8,0 -20.7,-2.4 -9.9,-2.1 -19.5,-6.9 3.3,-7.5 5.1,-14.7 2.1,-7.5 3.3,-15.3 h 5.7 q 0.9,6.3 3.9,11.4 3.3,4.8 7.8,8.1 4.5,3.3 9.9,5.1 5.4,1.8 11.1,1.8 10.8,0 17.7,-5.7 7.2,-6 7.2,-13.8 0,-8.7 -7.2,-13.8 -6.9,-5.1 -19.5,-12 -5.7,-3 -11.4,-6.3 -5.7,-3.6 -10.2,-8.4 -4.5,-4.8 -7.2,-11.1 -2.7,-6.6 -2.7,-15.9 0,-9 3.6,-18 3.6,-9 10.8,-16.2 7.2,-7.2 18,-11.7 10.8,-4.5 25.2,-4.5 13.5,0 23.4,3.3 10.2,3 17.1,6 -4.2,8.1 -6.3,16.5 -1.8,8.4 -2.4,13.8 h -6.3 z"
       style="font-style:italic;font-variant:normal;font-weight:bold;font-stretch:normal;font-size:300px;line-height:1.25;font-family:Optima;-inkscape-font-specification:'Optima Bold Italic'"
       id="path4510" />
  </g>
  <path
     style="fill:#000000"
     d="m 167.23633,8 v 0.00195 c -20.11015,-0.003 -36.6394,14.278297 -36.63477,31.654297 0,7.617 3.16361,14.64 8.42578,20.125 -12.48711,3.876 -22.03893,10.963547 -31.13867,22.060547 C 92.778,100.2718 80.476296,130.87105 66.914063,174.62305 c -11.87028,38.29 -28.17349,57.01345 -40.107421,70.56445 -11.931616,13.55 -18.8089564,20.3245 -18.8066414,42.6875 0.0023,3.5 2.2857264,7.3133 9.7675784,12.0293 7.479538,4.717 19.532256,9.38445 34.609375,13.18945 30.15308,7.612 72.262916,11.96075 116.017576,11.96875 22.43282,0.004 44.40209,-1.1493 64.55274,-3.2793 v 0.12305 c 14.03788,-1.043 38.57568,-3.8973 59.42187,-10.2793 6.70647,-2.055 13.05311,-4.4222 18.66016,-7.5332 3.02283,-1.376 5.72579,-2.7463 7.95703,-4.1543 7.47375,-4.714 9.76562,-8.52425 9.76562,-12.03125 -0.005,-22.363 -6.86924,-29.13445 -18.80664,-42.68945 -11.93856,-13.553 -28.26152,-32.27055 -40.14453,-70.56055 -13.57728,-43.757 -25.85699,-74.34925 -40.97461,-92.781247 -9.51867,-11.607 -19.5516,-18.83575 -32.91015,-22.59375 4.9879,-5.41 7.9945,-12.240953 7.99218,-19.626953 C 203.90589,22.27925 187.34649,8.003 167.23633,8 Z m 0,18.6875 c 8.42273,0 15.04492,5.694703 15.04492,12.970703 0,7.272 -6.62219,12.97075 -15.04492,12.96875 -8.42272,-0.002 -15.00745,-5.696703 -15.00977,-12.970703 0,-7.273 6.5882,-12.97075 15.00977,-12.96875 z m 10.66797,43.21875 0.002,0.002 c 23.8709,6.070722 39.65654,27.875757 50.61523,52.3086 1.85765,0.30721 3.69492,0.7727 5.48243,1.43164 l -3.39649,3.39844 c 3.53066,8.44078 6.50393,17.06227 9.08789,25.39453 l 11.54688,-11.55469 c 3.73437,10.13658 1.76295,21.86509 -6.19922,30.10351 0.042,0.15579 0.0891,0.32335 0.13086,0.47852 17.34771,64.56 52.83069,82.98 61.36914,111.25 -0.37843,0.633 -1.15813,1.2862 -2.42188,2.4082 -3.08417,2.74 -10.20252,6.2143 -18.98632,8.9043 -8.52457,2.61 -18.51633,4.615 -27.99219,6.125 -0.4667,-8.86358 -2.85223,-16.49958 -6.20899,-23.68945 l -9.49609,9.49609 -27.00195,-17.27148 1.60742,-11.12891 0.22851,-1.62891 -1.1582,-1.1582 -47.74805,-47.76172 4.90625,-4.9082 47.76172,47.76172 1.15821,1.1582 1.6289,-0.24023 11.11719,-1.60743 15.52148,24.27149 c -11.3865,-22.28817 -31.23435,-41.18459 -30.79687,-80.76367 0.0508,-4.5854 -0.025,-9.03568 -0.19336,-13.38086 -0.087,-0.0173 -0.17485,-0.0287 -0.26172,-0.0469 l -1.73828,-0.37109 -1.24609,1.25586 -27.83204,27.83398 -10.64843,-10.66015 4.1875,-4.18555 c 4.38144,-4.38249 4.68256,-10.36556 2.17578,-14.41992 -0.89308,-1.44369 -2.0501,-2.70023 -3.40039,-3.7168 l 15.18359,-15.18359 1.25781,-1.25782 -0.36132,-1.72656 c -1.97121,-9.3037 0.5702,-19.4491 7.76172,-26.64062 1.84294,-1.84271 3.87209,-3.3718 6.02148,-4.60352 -8.31725,-25.760397 -21.57632,-43.939173 -36.61914,-54.675783 1.6989,-0.233 3.33951,-0.57 4.95508,-1 z m 31.66406,55.67578 c 1.87678,5.81282 3.50571,12.00543 4.8418,18.59375 0.60268,-1.19237 1.39003,-2.31204 2.37695,-3.29883 l 13.82031,-13.83007 c -0.67692,-1.61833 -1.36854,-3.23062 -2.08594,-4.83008 -1.24882,-0.20653 -2.50489,-0.35375 -3.76562,-0.39453 -0.4782,-0.0157 -0.95344,-0.0194 -1.43164,-0.0117 l -0.002,0.002 c -4.76555,0.079 -9.50041,1.33204 -13.75391,3.76953 z m 4.8418,18.59375 c -2.36323,4.67554 -1.75192,10.52263 2.09179,14.36719 0.0976,0.0975 0.20467,0.17825 0.30469,0.27148 -0.64493,-5.0759 -1.44689,-9.95617 -2.39648,-14.63867 z m 2.39648,14.63867 c 0.82643,6.50434 1.38503,13.33731 1.66211,20.49024 9.17664,1.82976 19.09296,-0.80815 26.23633,-7.95117 0.11796,-0.11796 0.22245,-0.24384 0.33789,-0.36329 -1.5704,-5.82931 -3.34788,-12.10031 -5.34766,-18.54882 l -5.66992,5.67382 c -4.699,4.69833 -12.37185,5.21684 -17.21875,0.69922 z m 32.65234,114.63477 c 0.50976,0.99781 1.0014,2.00399 1.47461,3.01758 l 0.27735,-0.27735 z M 105.39062,122.58789 h 0.002 c 4.73427,-0.0554 10.03339,1.85726 15.3789,7.20313 l 30.29297,30.29296 c 1.07499,10.32412 9.22548,18.08696 19.76367,18.54102 l 0.0664,0.01 h 0.0664 c 2.63692,0 5.4033,1.61583 6.58008,3.51953 1.17748,1.90334 1.46355,3.65098 -1.23633,6.35156 l -22.5293,22.53125 c -2.53197,2.53267 -4.85939,2.46815 -6.86523,1.43164 -1.58607,-0.81996 -2.78487,-2.38347 -3.09375,-4.36133 l -0.0664,-2.0664 c -0.31553,-10.79882 -8.27549,-19.16896 -18.85742,-20.125 L 94.765626,155.78711 c -9.842071,-9.84312 -7.94941,-21.02666 -1.595703,-27.71094 3.175889,-3.34238 7.487417,-5.43102 12.220697,-5.48828 z m 57.18555,88.89649 10.65821,10.64843 -27.70118,27.70117 -1.24609,1.2461 0.36133,1.72656 c 1.93063,9.24843 -0.69355,19.29832 -7.9043,26.50977 -8.25461,8.25356 -20.18486,10.32562 -30.46875,6.53711 L 123.50391,268.625 c 4.79738,-4.79598 5.25239,-12.69878 0.42773,-17.52344 -4.82396,-4.82431 -12.80952,-4.56924 -17.66602,0.28516 l -17.22851,17.22851 c -3.789206,-10.28354 -1.717846,-22.21449 6.53711,-30.46875 7.19082,-7.19081 17.33692,-9.73188 26.64062,-7.76171 l 1.73828,0.37304 1.25782,-1.25781 14.61523,-14.61523 c 1.09947,1.42026 2.49871,2.58392 4.07813,3.40039 4.30414,2.22483 10.21505,1.65674 14.49609,-2.625 z M 42.718751,330.0625 c 1.409574,12.736 13.822118,22.68745 28.931641,22.68945 10.903946,0 20.416615,-5.1747 25.390625,-12.8457 -18.50037,-2.11 -35.670779,-5.08 -50.705078,-8.875 -1.226723,-0.31 -2.417445,-0.64875 -3.615235,-0.96875 z"
     id="path3354"
     inkscape:connector-curvature="0" />
</svg>
