<?xml version="1.0" encoding="UTF-8" standalone="no"?>
<svg
   xmlns:dc="http://purl.org/dc/elements/1.1/"
   xmlns:cc="http://creativecommons.org/ns#"
   xmlns:rdf="http://www.w3.org/1999/02/22-rdf-syntax-ns#"
   xmlns:svg="http://www.w3.org/2000/svg"
   xmlns="http://www.w3.org/2000/svg"
   xmlns:xlink="http://www.w3.org/1999/xlink"
   xmlns:sodipodi="http://sodipodi.sourceforge.net/DTD/sodipodi-0.dtd"
   xmlns:inkscape="http://www.inkscape.org/namespaces/inkscape"
   viewBox="0 0 336.75196 360.75196"
   id="svg3350"
   version="1.1"
   inkscape:version="0.92.2 5c3e80d, 2017-08-06"
   sodipodi:docname="PyBELtools-square.svg"
   width="336.75195"
   height="360.75195"
   inkscape:export-filename="PyBELtools-square-100.png"
   inkscape:export-xdpi="26.611082"
   inkscape:export-ydpi="26.611082">
  <metadata
     id="metadata3360">
    <rdf:RDF>
      <cc:Work
         rdf:about="">
        <dc:format>image/svg+xml</dc:format>
        <dc:type
           rdf:resource="http://purl.org/dc/dcmitype/StillImage" />
        <dc:title></dc:title>
        <cc:license
           rdf:resource="http://creativecommons.org/licenses/by/4.0/" />
      </cc:Work>
      <cc:License
         rdf:about="http://creativecommons.org/licenses/by/4.0/">
        <cc:permits
           rdf:resource="http://creativecommons.org/ns#Reproduction" />
        <cc:permits
           rdf:resource="http://creativecommons.org/ns#Distribution" />
        <cc:requires
           rdf:resource="http://creativecommons.org/ns#Notice" />
        <cc:requires
           rdf:resource="http://creativecommons.org/ns#Attribution" />
        <cc:permits
           rdf:resource="http://creativecommons.org/ns#DerivativeWorks" />
      </cc:License>
    </rdf:RDF>
  </metadata>
  <defs
     id="defs3358">
    <clipPath
       clipPathUnits="userSpaceOnUse"
       id="clipPath3412">
      <use
         x="0"
         y="0"
         xlink:href="#path3354"
         id="use3414"
         width="100%"
         height="100%"
         transform="translate(-21.796502)" />
    </clipPath>
    <clipPath
       clipPathUnits="userSpaceOnUse"
       id="clipPath3500">
      <use
         x="0"
         y="0"
         xlink:href="#path3354"
         id="use3502"
         width="100%"
         height="100%"
         transform="translate(12.000002)" />
    </clipPath>
  </defs>
  <sodipodi:namedview
     pagecolor="#ffffff"
     bordercolor="#666666"
     borderopacity="1"
     objecttolerance="10"
     gridtolerance="10"
     guidetolerance="10"
     inkscape:pageopacity="0"
     inkscape:pageshadow="2"
     inkscape:window-width="1440"
     inkscape:window-height="772"
     id="namedview3356"
     showgrid="false"
     fit-margin-top="8"
     fit-margin-left="8"
     fit-margin-right="8"
     fit-margin-bottom="8"
     inkscape:zoom="0.31918551"
     inkscape:cx="816.62578"
     inkscape:cy="224.45529"
     inkscape:window-x="0"
     inkscape:window-y="0"
     inkscape:window-maximized="0"
     inkscape:current-layer="svg3350"
     showguides="false" />
  <path
     style="fill:#000000"
     d="m 167.23633,8 v 0.00195 c -20.11015,-0.003 -36.6394,14.278297 -36.63477,31.654297 0,7.617 3.16361,14.64 8.42578,20.125 -12.48711,3.876 -22.03893,10.963547 -31.13867,22.060547 C 92.778,100.2718 80.476296,130.87105 66.914063,174.62305 c -11.87028,38.29 -28.17349,57.01345 -40.107421,70.56445 -11.931616,13.55 -18.8089564,20.3245 -18.8066414,42.6875 0.0023,3.5 2.2857264,7.3133 9.7675784,12.0293 7.479538,4.717 19.532256,9.38445 34.609375,13.18945 30.15308,7.612 72.262916,11.96075 116.017576,11.96875 22.43282,0.004 44.40209,-1.1493 64.55274,-3.2793 v 0.12305 c 14.03788,-1.043 38.57568,-3.8973 59.42187,-10.2793 6.70647,-2.055 13.05311,-4.4222 18.66016,-7.5332 3.02283,-1.376 5.72579,-2.7463 7.95703,-4.1543 7.47375,-4.714 9.76562,-8.52425 9.76562,-12.03125 -0.005,-22.363 -6.86924,-29.13445 -18.80664,-42.68945 -11.93856,-13.553 -28.26152,-32.27055 -40.14453,-70.56055 -13.57728,-43.757 -25.85699,-74.34925 -40.97461,-92.781247 -9.51867,-11.607 -19.5516,-18.83575 -32.91015,-22.59375 4.9879,-5.41 7.9945,-12.240953 7.99218,-19.626953 C 203.90589,22.27925 187.34649,8.003 167.23633,8 Z m 0,18.6875 c 8.42273,0 15.04492,5.694703 15.04492,12.970703 0,7.272 -6.62219,12.97075 -15.04492,12.96875 -8.42272,-0.002 -15.00745,-5.696703 -15.00977,-12.970703 0,-7.273 6.5882,-12.97075 15.00977,-12.96875 z m 10.66797,43.21875 0.002,0.002 c 23.8709,6.070722 39.65654,27.875757 50.61523,52.3086 1.85765,0.30721 3.69492,0.7727 5.48243,1.43164 l -3.39649,3.39844 c 3.53066,8.44078 6.50393,17.06227 9.08789,25.39453 l 11.54688,-11.55469 c 3.73437,10.13658 1.76295,21.86509 -6.19922,30.10351 0.042,0.15579 0.0891,0.32335 0.13086,0.47852 17.34771,64.56 52.83069,82.98 61.36914,111.25 -0.37843,0.633 -1.15813,1.2862 -2.42188,2.4082 -3.08417,2.74 -10.20252,6.2143 -18.98632,8.9043 -8.52457,2.61 -18.51633,4.615 -27.99219,6.125 -0.4667,-8.86358 -2.85223,-16.49958 -6.20899,-23.68945 l -9.49609,9.49609 -27.00195,-17.27148 1.60742,-11.12891 0.22851,-1.62891 -1.1582,-1.1582 -47.74805,-47.76172 4.90625,-4.9082 47.76172,47.76172 1.15821,1.1582 1.6289,-0.24023 11.11719,-1.60743 15.52148,24.27149 c -11.3865,-22.28817 -31.23435,-41.18459 -30.79687,-80.76367 0.0508,-4.5854 -0.025,-9.03568 -0.19336,-13.38086 -0.087,-0.0173 -0.17485,-0.0287 -0.26172,-0.0469 l -1.73828,-0.37109 -1.24609,1.25586 -27.83204,27.83398 -10.64843,-10.66015 4.1875,-4.18555 c 4.38144,-4.38249 4.68256,-10.36556 2.17578,-14.41992 -0.89308,-1.44369 -2.0501,-2.70023 -3.40039,-3.7168 l 15.18359,-15.18359 1.25781,-1.25782 -0.36132,-1.72656 c -1.97121,-9.3037 0.5702,-19.4491 7.76172,-26.64062 1.84294,-1.84271 3.87209,-3.3718 6.02148,-4.60352 -8.31725,-25.760397 -21.57632,-43.939173 -36.61914,-54.675783 1.6989,-0.233 3.33951,-0.57 4.95508,-1 z m 31.66406,55.67578 c 1.87678,5.81282 3.50571,12.00543 4.8418,18.59375 0.60268,-1.19237 1.39003,-2.31204 2.37695,-3.29883 l 13.82031,-13.83007 c -0.67692,-1.61833 -1.36854,-3.23062 -2.08594,-4.83008 -1.24882,-0.20653 -2.50489,-0.35375 -3.76562,-0.39453 -0.4782,-0.0157 -0.95344,-0.0194 -1.43164,-0.0117 l -0.002,0.002 c -4.76555,0.079 -9.50041,1.33204 -13.75391,3.76953 z m 4.8418,18.59375 c -2.36323,4.67554 -1.75192,10.52263 2.09179,14.36719 0.0976,0.0975 0.20467,0.17825 0.30469,0.27148 -0.64493,-5.0759 -1.44689,-9.95617 -2.39648,-14.63867 z m 2.39648,14.63867 c 0.82643,6.50434 1.38503,13.33731 1.66211,20.49024 9.17664,1.82976 19.09296,-0.80815 26.23633,-7.95117 0.11796,-0.11796 0.22245,-0.24384 0.33789,-0.36329 -1.5704,-5.82931 -3.34788,-12.10031 -5.34766,-18.54882 l -5.66992,5.67382 c -4.699,4.69833 -12.37185,5.21684 -17.21875,0.69922 z m 32.65234,114.63477 c 0.50976,0.99781 1.0014,2.00399 1.47461,3.01758 l 0.27735,-0.27735 z M 105.39062,122.58789 h 0.002 c 4.73427,-0.0554 10.03339,1.85726 15.3789,7.20313 l 30.29297,30.29296 c 1.07499,10.32412 9.22548,18.08696 19.76367,18.54102 l 0.0664,0.01 h 0.0664 c 2.63692,0 5.4033,1.61583 6.58008,3.51953 1.17748,1.90334 1.46355,3.65098 -1.23633,6.35156 l -22.5293,22.53125 c -2.53197,2.53267 -4.85939,2.46815 -6.86523,1.43164 -1.58607,-0.81996 -2.78487,-2.38347 -3.09375,-4.36133 l -0.0664,-2.0664 c -0.31553,-10.79882 -8.27549,-19.16896 -18.85742,-20.125 L 94.765626,155.78711 c -9.842071,-9.84312 -7.94941,-21.02666 -1.595703,-27.71094 3.175889,-3.34238 7.487417,-5.43102 12.220697,-5.48828 z m 57.18555,88.89649 10.65821,10.64843 -27.70118,27.70117 -1.24609,1.2461 0.36133,1.72656 c 1.93063,9.24843 -0.69355,19.29832 -7.9043,26.50977 -8.25461,8.25356 -20.18486,10.32562 -30.46875,6.53711 L 123.50391,268.625 c 4.79738,-4.79598 5.25239,-12.69878 0.42773,-17.52344 -4.82396,-4.82431 -12.80952,-4.56924 -17.66602,0.28516 l -17.22851,17.22851 c -3.789206,-10.28354 -1.717846,-22.21449 6.53711,-30.46875 7.19082,-7.19081 17.33692,-9.73188 26.64062,-7.76171 l 1.73828,0.37304 1.25782,-1.25781 14.61523,-14.61523 c 1.09947,1.42026 2.49871,2.58392 4.07813,3.40039 4.30414,2.22483 10.21505,1.65674 14.49609,-2.625 z M 42.718751,330.0625 c 1.409574,12.736 13.822118,22.68745 28.931641,22.68945 10.903946,0 20.416615,-5.1747 25.390625,-12.8457 -18.50037,-2.11 -35.670779,-5.08 -50.705078,-8.875 -1.226723,-0.31 -2.417445,-0.64875 -3.615235,-0.96875 z"
     id="path3354"
     inkscape:connector-curvature="0" />
</svg>
