<?xml version="1.0" encoding="UTF-8" standalone="no"?>
<svg
   xmlns:dc="http://purl.org/dc/elements/1.1/"
   xmlns:cc="http://creativecommons.org/ns#"
   xmlns:rdf="http://www.w3.org/1999/02/22-rdf-syntax-ns#"
   xmlns:svg="http://www.w3.org/2000/svg"
   xmlns="http://www.w3.org/2000/svg"
   xmlns:xlink="http://www.w3.org/1999/xlink"
   xmlns:sodipodi="http://sodipodi.sourceforge.net/DTD/sodipodi-0.dtd"
   xmlns:inkscape="http://www.inkscape.org/namespaces/inkscape"
   viewBox="0 0 2316.6138 360.75098"
   id="svg3350"
   version="1.1"
   inkscape:version="0.92.2 5c3e80d, 2017-08-06"
   sodipodi:docname="BELcommons-paths.svg"
   width="2316.6138"
   height="380.64526"
   inkscape:export-filename="PyBEL-logotype-100.png"
   inkscape:export-xdpi="24.947956"
   inkscape:export-ydpi="24.947956">
  <metadata
     id="metadata3360">
    <rdf:RDF>
      <cc:Work
         rdf:about="">
        <dc:format>image/svg+xml</dc:format>
        <dc:type
           rdf:resource="http://purl.org/dc/dcmitype/StillImage" />
        <dc:title></dc:title>
        <cc:license
           rdf:resource="http://creativecommons.org/licenses/by/4.0/" />
      </cc:Work>
      <cc:License
         rdf:about="http://creativecommons.org/licenses/by/4.0/">
        <cc:permits
           rdf:resource="http://creativecommons.org/ns#Reproduction" />
        <cc:permits
           rdf:resource="http://creativecommons.org/ns#Distribution" />
        <cc:requires
           rdf:resource="http://creativecommons.org/ns#Notice" />
        <cc:requires
           rdf:resource="http://creativecommons.org/ns#Attribution" />
        <cc:permits
           rdf:resource="http://creativecommons.org/ns#DerivativeWorks" />
      </cc:License>
    </rdf:RDF>
  </metadata>
  <defs
     id="defs3358">
    <clipPath
       clipPathUnits="userSpaceOnUse"
       id="clipPath3412">
      <use
         x="0"
         y="0"
         xlink:href="#path3354"
         id="use3414"
         width="100%"
         height="100%"
         transform="translate(-21.796501)" />
    </clipPath>
    <clipPath
       clipPathUnits="userSpaceOnUse"
       id="clipPath3500">
      <use
         x="0"
         y="0"
         xlink:href="#path3354"
         id="use3502"
         width="100%"
         height="100%"
         transform="translate(12.000003)" />
    </clipPath>
    <clipPath
       clipPathUnits="userSpaceOnUse"
       id="clipPath4931">
      <path
         inkscape:connector-curvature="0"
         id="path4933"
         d="M 187.3833,-11.894267 17.67767,372.06472 345.06811,314.08196 281.4285,10.026043 Z"
         style="fill:none;fill-rule:evenodd;stroke:#000000;stroke-width:1px;stroke-linecap:butt;stroke-linejoin:miter;stroke-opacity:1" />
    </clipPath>
    <clipPath
       clipPathUnits="userSpaceOnUse"
       id="clipPath4935">
      <path
         style="fill:none;fill-rule:evenodd;stroke:#000000;stroke-width:1.36009729px;stroke-linecap:butt;stroke-linejoin:miter;stroke-opacity:1"
         d="M 372.4313,26.324307 141.61513,548.54589 -4.5684445,249.44661 86.79629,31.132977 Z"
         id="path4937"
         inkscape:connector-curvature="0"
         sodipodi:nodetypes="ccccc" />
    </clipPath>
  </defs>
  <sodipodi:namedview
     pagecolor="#ffffff"
     bordercolor="#666666"
     borderopacity="1"
     objecttolerance="10"
     gridtolerance="10"
     guidetolerance="10"
     inkscape:pageopacity="0"
     inkscape:pageshadow="2"
     inkscape:window-width="1440"
     inkscape:window-height="772"
     id="namedview3356"
     showgrid="false"
     fit-margin-top="8"
     fit-margin-left="8"
     fit-margin-right="8"
     fit-margin-bottom="8"
     inkscape:zoom="0.5"
     inkscape:cx="1057.6654"
     inkscape:cy="362.63005"
     inkscape:window-x="0"
     inkscape:window-y="0"
     inkscape:window-maximized="0"
     inkscape:current-layer="svg3350"
     showguides="false" />
  <g
     aria-label="BEL Commons"
     style="font-style:normal;font-weight:normal;line-height:0%;font-family:sans-serif;letter-spacing:0px;word-spacing:0px;fill-opacity:1;stroke:none;stroke-width:1px;stroke-linecap:butt;stroke-linejoin:miter;stroke-opacity:1"
     id="text3464">
    <path
       d="m 540.39514,220.19813 q 0,-5.4 -2.1,-13.5 -1.8,-8.1 -8.4,-14.1 -5.7,-4.8 -12.6,-5.7 -6.9,-0.9 -18.6,-0.9 -1.8,8.7 -4.5,20.1 -2.4,11.4 -5.1,23.4 -2.4,11.7 -4.5,22.5 -2.1,10.8 -3,18.3 2.1,0.3 3.9,0.6 2.1,0 3.6,0 h 6.6 q 11.1,0 19.5,-3.9 8.4,-3.9 13.8,-10.8 5.7,-6.9 8.4,-15.9 3,-9.3 3,-20.1 z m 16.8,-94.8 q 0,-8.7 -2.4,-13.8 -2.4,-5.4 -6.6,-8.4 -3.9,-3.300004 -9.3,-4.200004 -5.1,-1.2 -10.8,-1.2 h -5.4 q -1.5,0 -3,0.3 -1.2,0 -2.7,0.3 -2.4,8.700004 -4.8,19.200004 -2.4,10.2 -4.5,20.1 -1.8,9.9 -3.6,18.6 -1.5,8.4 -2.4,13.5 1.5,0.3 2.7,0.3 1.5,0 3,0 h 6 q 20.7,0 32.1,-12 11.7,-12 11.7,-32.7 z m -15.3,55.5 q 9,0.6 16.8,3.9 8.1,3 14.1,8.7 6.3,5.7 9.6,14.1 3.6,8.1 3.6,18.6 0,6 -1.5,12.6 -1.5,6.6 -4.8,12.9 -3,6.3 -8.4,12 -5.1,5.7 -12.3,10.2 -8.1,4.8 -16.5,7.5 -8.1,2.4 -15.6,3.3 -7.5,0.9 -13.8,0.9 -6.3,0.3 -10.5,0.3 -2.7,0 -9,-0.3 -6,0 -12.9,-0.3 -6.9,0 -12.9,0 -6,0 -8.4,0 -6.9,0 -13.8,0 -6.6,0 -13.5,0.6 5.4,-18 10.5,-39 5.1,-21 9.6,-42 4.8,-21 8.7,-40.8 3.9,-20.1 6.9,-36.6 3,-16.8 4.8,-28.800004 2.1,-12.3 2.7,-17.7 5.4,0.6 10.8,1.2 5.4,0.3 13.8,0.3 2.7,0 9,-0.3 6.6,-0.3 13.8,-0.3 7.2,-0.3 13.5,-0.6 6.6,-0.3 9,-0.3 2.7,0 7.8,0.3 5.4,0 11.7,1.2 6.3,1.2 12.6,3.9 6.6,2.4 11.7,7.2 5.4,4.5 8.7,11.700004 3.6,6.9 3.6,17.4 0,4.2 -1.5,12.3 -1.5,8.1 -7.5,16.8 -5.7,8.7 -17.7,16.2 -12,7.2 -32.7,9.9 z"
       style="font-style:italic;font-variant:normal;font-weight:bold;font-stretch:normal;font-size:300px;line-height:1.25;font-family:Optima;-inkscape-font-specification:'Optima Bold Italic'"
       id="path27" />
    <path
       d="m 657.49358,80.998126 q 13.5,1.2 30.6,1.5 17.4,0 33.6,0 15.6,0 29.1,-0.3 13.8,-0.6 24,-1.2 -3.9,7.8 -4.8,12.3 -0.9,4.5 -0.3,10.800004 -6,-0.6 -11.4,-0.9 -5.4,-0.6 -12.9,-0.9 -7.5,-0.6 -18,-0.6 -10.2,-0.3 -26.1,-0.3 -5.1,18 -9.3,36 -3.9,18 -6.3,30 h 24.3 q 7.8,0 13.8,0 6.3,0 11.4,-0.3 5.1,-0.3 9.9,-0.6 4.8,-0.3 9.6,-0.6 -4.2,9 -4.8,13.8 -0.3,4.8 0,9.6 -15.6,-1.8 -33.9,-2.1 -18.3,-0.6 -34.5,-0.6 -4.2,19.8 -8.1,39.9 -3.6,19.8 -6,39.9 h 24 q 7.5,0 13.2,0 5.7,-0.3 10.8,-0.3 5.1,-0.3 10.2,-0.6 5.1,-0.6 11.4,-1.2 -3.9,9 -4.8,13.5 -0.6,4.5 0,8.1 -18,-0.6 -33.6,-0.6 -15.3,0 -28.8,0 -16.2,0 -30,0 -13.5,0 -25.5,0.6 3,-8.7 6.9,-24.6 4.2,-16.2 8.7,-35.7 4.5,-19.8 8.7,-41.1 4.5,-21.6 8.1,-41.1 3.9,-19.8 6.6,-36.3 3,-16.500004 4.2,-26.100004 z"
       style="font-style:italic;font-variant:normal;font-weight:bold;font-stretch:normal;font-size:300px;line-height:1.25;font-family:Optima;-inkscape-font-specification:'Optima Bold Italic'"
       id="path29" />
    <path
       d="m 815.45295,80.998126 q 5.7,0.6 12.3,1.2 6.6,0.3 13.5,0.3 6.6,0 12.6,-0.3 6.3,-0.6 11.4,-1.2 -4.5,15.3 -9,33.300004 -4.5,18 -9,36.6 -4.2,18.3 -8.1,36.3 -3.6,18 -6.9,33.3 -3,15.3 -5.1,27.3 -2.1,11.7 -3,18 h 22.8 q 15.3,0 26.1,-0.3 11.1,-0.3 21.9,-1.2 -3,6.3 -4.2,11.1 -0.9,4.5 -0.9,10.5 -15.3,-0.6 -30.6,-0.6 -15.3,0 -30.6,0 -16.5,0 -31.5,0 -14.7,0 -25.2,0.6 7.2,-23.7 13.8,-52.5 6.6,-29.1 12.6,-57.3 5.1,-23.7 9,-47.1 4.2,-23.7 8.1,-48.000004 z"
       style="font-style:italic;font-variant:normal;font-weight:bold;font-stretch:normal;font-size:300px;line-height:1.25;font-family:Optima;-inkscape-font-specification:'Optima Bold Italic'"
       id="path31" />
    <path
       d="m 1191.1561,122.99813 q -9,-15.3 -21.9,-21.6 -12.6,-6.600004 -30.6,-6.600004 -22.5,0 -38.1,10.800004 -15.6,10.8 -25.5,27.6 -9.6,16.5 -14.1,36.6 -4.5,20.1 -4.5,39 0,29.1 15,46.5 15,17.4 44.7,17.4 14.4,0 27.9,-4.2 13.5,-4.2 24.6,-13.5 l 2.7,2.1 q -3.3,6.6 -6,12.3 -2.4,5.4 -5.1,12.3 -9.6,3.6 -19.8,5.4 -9.9,1.8 -25.5,1.8 -30.6,0 -51,-8.4 -20.1,-8.4 -32.1,-22.2 -12,-13.8 -16.8,-30.3 -4.8,-16.8 -4.8,-32.7 0,-24.6 9,-45.9 9,-21.6 25.5,-37.5 16.5,-16.200004 39.3,-25.200004 22.8,-9.3 50.1,-9.3 14.7,0 26.4,2.1 11.7,1.8 20.7,4.8 9,2.7 15.6,6 6.6,3.3 11.1,5.7 -4.8,6.900004 -8.4,14.400004 -3.3,7.5 -5.4,12.6 h -3 z"
       style="font-style:italic;font-variant:normal;font-weight:bold;font-stretch:normal;font-size:300px;line-height:1.25;font-family:Optima;-inkscape-font-specification:'Optima Bold Italic'"
       id="path33" />
    <path
       d="m 1241.5467,242.09813 q 0,6.3 0.9,12.9 0.9,6.6 3.3,12 2.7,5.1 7.2,8.4 4.8,3.3 12.3,3.3 8.7,0 15.6,-4.8 6.9,-5.1 12,-13.2 5.1,-8.1 8.7,-18 3.6,-10.2 5.7,-20.1 2.4,-10.2 3.3,-19.2 1.2,-9.3 1.2,-15.3 0,-6.3 -0.9,-12.9 -0.9,-6.6 -3.6,-11.7 -2.4,-5.4 -7.2,-8.7 -4.5,-3.3 -12,-3.3 -8.7,0 -15.6,5.1 -6.9,4.8 -12,12.9 -5.1,8.1 -8.7,18.3 -3.6,9.9 -6,20.1 -2.1,9.9 -3.3,19.2 -0.9,9 -0.9,15 z m -41.1,-15.3 q 0,-18.3 6.6,-34.2 6.9,-15.9 18.6,-27.6 11.7,-12 27.6,-18.6 15.9,-6.9 34.2,-6.9 16.2,0 28.2,4.8 12.3,4.5 20.4,13.2 8.4,8.4 12.6,20.4 4.2,11.7 4.2,26.1 0,18.3 -7.2,34.2 -7.2,15.6 -19.5,27.3 -12,11.7 -28.2,18 -15.9,6.3 -33.9,6.3 -14.4,0 -26.1,-4.5 -11.7,-4.2 -20.1,-12.6 -8.4,-8.4 -12.9,-20.1 -4.5,-11.7 -4.5,-25.8 z"
       style="font-style:italic;font-variant:normal;font-weight:bold;font-stretch:normal;font-size:300px;line-height:1.25;font-family:Optima;-inkscape-font-specification:'Optima Bold Italic'"
       id="path35" />
    <path
       d="m 1392.3389,142.49813 q 4.2,0.6 8.7,1.2 4.5,0.3 11.1,0.3 6.6,0 11.1,-0.3 4.5,-0.6 9,-1.2 -1.8,5.7 -3,11.4 -1.2,5.4 -2.4,11.1 2.7,-3.3 6.9,-7.5 4.5,-4.5 10.5,-8.4 6,-3.9 14.1,-6.6 8.1,-3 18.6,-3 14.4,0 23.4,7.2 9.3,6.9 12.3,20.7 9.9,-12 23.1,-20.1 13.2,-8.1 28.5,-8.1 6.3,0 12.9,2.1 6.9,1.8 12.3,6 5.7,3.9 9,10.5 3.6,6.3 3.6,15.3 0,3.9 -0.3,7.5 -0.3,3.6 -1.2,8.4 -0.9,4.5 -2.4,11.4 -1.5,6.6 -3.9,16.8 -0.6,2.1 -2.4,10.5 -1.8,8.4 -4.2,19.2 -2.1,10.5 -4.2,21.6 -2.1,10.8 -3.3,17.4 -5.1,-0.6 -10.5,-0.6 -5.1,0 -11.1,0 -7.8,0 -12.9,0 -4.8,0 -9.6,0.6 4.2,-13.2 8.7,-30 4.8,-16.8 8.4,-32.1 3.9,-15.6 6.3,-27.9 2.4,-12.3 2.4,-17.4 0,-6.9 -4.2,-11.7 -4.2,-4.8 -12.6,-4.8 -3,0 -7.5,1.2 -4.5,1.2 -9.6,5.4 -5.1,3.9 -10.2,11.7 -4.8,7.5 -8.7,20.7 -3.3,10.2 -8.4,33 -4.8,22.5 -9.9,51.9 -4.8,-0.6 -10.8,-0.6 -5.7,0 -12.6,0 -5.7,0 -9.9,0 -4.2,0 -9.6,0.6 3.6,-11.7 8.1,-28.5 4.5,-16.8 8.4,-32.7 3.9,-16.2 6.6,-29.1 2.7,-12.9 2.7,-17.7 0,-7.8 -4.5,-11.4 -4.2,-3.9 -11.7,-3.9 -12.6,0 -21.9,9.9 -9.3,9.6 -14.7,27.6 -0.9,2.7 -2.7,9.6 -1.8,6.9 -4.5,18 -2.4,11.1 -5.4,26.1 -3,14.7 -5.7,32.1 -5.1,-0.6 -10.5,-0.6 -5.4,0 -10.8,0 -5.7,0 -11.1,0 -5.1,0 -9.9,0.6 3.9,-13.8 6.6,-24.9 3,-11.4 5.7,-23.1 2.7,-12 5.7,-26.4 3.3,-14.7 7.8,-36 1.5,-7.8 2.4,-12.6 0.9,-5.1 1.5,-8.4 0.9,-3.6 1.2,-6.3 0.6,-2.7 1.2,-5.7 z"
       style="font-style:italic;font-variant:normal;font-weight:bold;font-stretch:normal;font-size:300px;line-height:1.25;font-family:Optima;-inkscape-font-specification:'Optima Bold Italic'"
       id="path37" />
    <path
       d="m 1642.5342,142.49813 q 4.2,0.6 8.7,1.2 4.5,0.3 11.1,0.3 6.6,0 11.1,-0.3 4.5,-0.6 9,-1.2 -1.8,5.7 -3,11.4 -1.2,5.4 -2.4,11.1 2.7,-3.3 6.9,-7.5 4.5,-4.5 10.5,-8.4 6,-3.9 14.1,-6.6 8.1,-3 18.6,-3 14.4,0 23.4,7.2 9.3,6.9 12.3,20.7 9.9,-12 23.1,-20.1 13.2,-8.1 28.5,-8.1 6.3,0 12.9,2.1 6.9,1.8 12.3,6 5.7,3.9 9,10.5 3.6,6.3 3.6,15.3 0,3.9 -0.3,7.5 -0.3,3.6 -1.2,8.4 -0.9,4.5 -2.4,11.4 -1.5,6.6 -3.9,16.8 -0.6,2.1 -2.4,10.5 -1.8,8.4 -4.2,19.2 -2.1,10.5 -4.2,21.6 -2.1,10.8 -3.3,17.4 -5.1,-0.6 -10.5,-0.6 -5.1,0 -11.1,0 -7.8,0 -12.9,0 -4.8,0 -9.6,0.6 4.2,-13.2 8.7,-30 4.8,-16.8 8.4,-32.1 3.9,-15.6 6.3,-27.9 2.4,-12.3 2.4,-17.4 0,-6.9 -4.2,-11.7 -4.2,-4.8 -12.6,-4.8 -3,0 -7.5,1.2 -4.5,1.2 -9.6,5.4 -5.1,3.9 -10.2,11.7 -4.8,7.5 -8.7,20.7 -3.3,10.2 -8.4,33 -4.8,22.5 -9.9,51.9 -4.8,-0.6 -10.8,-0.6 -5.7,0 -12.6,0 -5.7,0 -9.9,0 -4.2,0 -9.6,0.6 3.6,-11.7 8.1,-28.5 4.5,-16.8 8.4,-32.7 3.9,-16.2 6.6,-29.1 2.7,-12.9 2.7,-17.7 0,-7.8 -4.5,-11.4 -4.2,-3.9 -11.7,-3.9 -12.6,0 -21.9,9.9 -9.3,9.6 -14.7,27.6 -0.9,2.7 -2.7,9.6 -1.8,6.9 -4.5,18 -2.4,11.1 -5.4,26.1 -3,14.7 -5.7,32.1 -5.1,-0.6 -10.5,-0.6 -5.4,0 -10.8,0 -5.7,0 -11.1,0 -5.1,0 -9.9,0.6 3.9,-13.8 6.6,-24.9 3,-11.4 5.7,-23.1 2.7,-12 5.7,-26.4 3.3,-14.7 7.8,-36 1.5,-7.8 2.4,-12.6 0.9,-5.1 1.5,-8.4 0.9,-3.6 1.2,-6.3 0.6,-2.7 1.2,-5.7 z"
       style="font-style:italic;font-variant:normal;font-weight:bold;font-stretch:normal;font-size:300px;line-height:1.25;font-family:Optima;-inkscape-font-specification:'Optima Bold Italic'"
       id="path39" />
    <path
       d="m 1908.9295,242.09813 q 0,6.3 0.9,12.9 0.9,6.6 3.3,12 2.7,5.1 7.2,8.4 4.8,3.3 12.3,3.3 8.7,0 15.6,-4.8 6.9,-5.1 12,-13.2 5.1,-8.1 8.7,-18 3.6,-10.2 5.7,-20.1 2.4,-10.2 3.3,-19.2 1.2,-9.3 1.2,-15.3 0,-6.3 -0.9,-12.9 -0.9,-6.6 -3.6,-11.7 -2.4,-5.4 -7.2,-8.7 -4.5,-3.3 -12,-3.3 -8.7,0 -15.6,5.1 -6.9,4.8 -12,12.9 -5.1,8.1 -8.7,18.3 -3.6,9.9 -6,20.1 -2.1,9.9 -3.3,19.2 -0.9,9 -0.9,15 z m -41.1,-15.3 q 0,-18.3 6.6,-34.2 6.9,-15.9 18.6,-27.6 11.7,-12 27.6,-18.6 15.9,-6.9 34.2,-6.9 16.2,0 28.2,4.8 12.3,4.5 20.4,13.2 8.4,8.4 12.6,20.4 4.2,11.7 4.2,26.1 0,18.3 -7.2,34.2 -7.2,15.6 -19.5,27.3 -12,11.7 -28.2,18 -15.9,6.3 -33.9,6.3 -14.4,0 -26.1,-4.5 -11.7,-4.2 -20.1,-12.6 -8.4,-8.4 -12.9,-20.1 -4.5,-11.7 -4.5,-25.8 z"
       style="font-style:italic;font-variant:normal;font-weight:bold;font-stretch:normal;font-size:300px;line-height:1.25;font-family:Optima;-inkscape-font-specification:'Optima Bold Italic'"
       id="path41" />
    <path
       d="m 2185.7217,170.99813 q 0,3.9 -0.3,7.8 -0.3,3.6 -1.5,9 -0.9,5.4 -2.7,13.2 -1.8,7.8 -4.8,20.1 -2.7,11.1 -4.8,19.5 -1.8,8.4 -3.3,15.9 -1.5,7.5 -2.7,14.7 -1.2,6.9 -2.7,14.7 -5.1,-0.6 -10.2,-0.6 -5.1,0 -12,0 -6.3,0 -12,0 -5.4,0 -10.5,0.6 1.2,-2.7 3.6,-10.8 2.7,-8.4 5.7,-18.9 3.3,-10.8 6.3,-22.8 3.3,-12 6,-22.8 2.7,-10.8 4.5,-19.2 1.8,-8.7 1.8,-12.6 0,-8.4 -4.8,-12.6 -4.5,-4.2 -12.6,-4.2 -10.8,0 -21.6,9.3 -10.5,9.3 -16.8,29.1 -2.4,7.5 -5.1,17.7 -2.7,10.2 -5.4,21.9 -2.4,11.4 -4.8,23.7 -2.1,12 -3.6,22.2 -5.1,-0.6 -10.5,-0.6 -5.1,0 -10.2,0 -5.4,0 -11.1,0 -5.7,0 -10.8,0.6 3.9,-13.8 7.8,-29.1 3.9,-15.3 7.8,-32.4 3.9,-17.4 7.8,-37.5 4.2,-20.1 8.7,-44.4 4.5,0.6 10.2,1.2 6,0.3 11.4,0.3 5.1,0 9.9,-0.3 4.8,-0.6 9.3,-1.2 -1.2,3.9 -2.1,6.9 -0.9,2.7 -1.5,5.4 -0.6,2.7 -1.5,5.7 -0.6,3 -1.5,7.2 10.8,-13.5 23.4,-20.7 12.6,-7.5 30.6,-7.5 18.9,0 27.6,9 9,9 9,22.5 z"
       style="font-style:italic;font-variant:normal;font-weight:bold;font-stretch:normal;font-size:300px;line-height:1.25;font-family:Optima;-inkscape-font-specification:'Optima Bold Italic'"
       id="path43" />
    <path
       d="m 2293.6139,179.09813 q -0.6,-2.7 -2.1,-6.9 -1.2,-4.2 -4.5,-8.4 -3.3,-4.2 -9,-7.2 -5.4,-3 -14.4,-3 -11.7,0 -18.3,5.7 -6.3,5.4 -6.3,13.2 0,3.9 1.5,6.9 1.5,3 5.1,6 3.9,3 10.2,6.6 6.3,3.3 15.6,8.1 12,6.6 20.4,15.6 8.4,9 8.4,24 0,13.2 -5.4,22.8 -5.4,9.6 -14.4,15.9 -9,6 -20.4,8.7 -11.1,2.7 -22.8,2.7 -10.8,0 -20.7,-2.4 -9.9,-2.1 -19.5,-6.9 3.3,-7.5 5.1,-14.7 2.1,-7.5 3.3,-15.3 h 5.7 q 0.9,6.3 3.9,11.4 3.3,4.8 7.8,8.1 4.5,3.3 9.9,5.1 5.4,1.8 11.1,1.8 10.8,0 17.7,-5.7 7.2,-6 7.2,-13.8 0,-8.7 -7.2,-13.8 -6.9,-5.1 -19.5,-12 -5.7,-3 -11.4,-6.3 -5.7,-3.6 -10.2,-8.4 -4.5,-4.8 -7.2,-11.1 -2.7,-6.6 -2.7,-15.9 0,-9 3.6,-18 3.6,-9 10.8,-16.2 7.2,-7.2 18,-11.7 10.8,-4.5 25.2,-4.5 13.5,0 23.4,3.3 10.2,3 17.1,6 -4.2,8.1 -6.3,16.5 -1.8,8.4 -2.4,13.8 h -6.3 z"
       style="font-style:italic;font-variant:normal;font-weight:bold;font-stretch:normal;font-size:300px;line-height:1.25;font-family:Optima;-inkscape-font-specification:'Optima Bold Italic'"
       id="path45" />
  </g>
  <g
     id="g4939"
     transform="translate(92.443651,9.9471225)">
    <path
       clip-path="url(#clipPath4931)"
       sodipodi:nodetypes="cccccccccsccccccccccccccsscccccccccccccccccc"
       style="fill:#000000"
       inkscape:connector-curvature="0"
       id="path3354"
       d="m 167.23673,8.001 c -20.11015,-0.003 -36.63967,14.28 -36.63504,31.656 0,7.617 3.16287,14.64 8.42504,20.125 -12.48711,3.876 -22.03819,10.963 -31.13793,22.06 -15.110673,18.43 -27.412621,49.03 -40.974853,92.782 -11.87028,38.29 -28.174121,57.012 -40.108052,70.563 -11.931616,13.55 -18.8082094,20.325 -18.8058944,42.688 0.0023,3.5 2.2856404,7.314 9.7674924,12.03 7.479538,4.717 19.796677,8.48656 34.608631,13.36478 30.15308,7.612 72.263236,11.78522 116.017896,11.79322 22.43282,0.004 44.40274,-1.15 64.55339,-3.28 v 0.124 c 14.03788,-1.043 38.57465,-3.898 59.42084,-10.28 6.70647,-2.055 13.05418,-4.422 18.66123,-7.533 3.02283,-1.376 5.7251,-2.747 7.95634,-4.155 7.47375,-4.714 9.76518,-8.523 9.76518,-12.03 -0.005,-22.363 -6.86849,-29.135 -18.80589,-42.69 -11.93856,-13.553 -28.26092,-32.27 -40.14393,-70.56 -13.57728,-43.757 -25.85724,-74.35 -40.97486,-92.782 -9.51867,-11.607 -19.55234,-18.836 -32.91089,-22.594 4.9879,-5.41 7.99453,-12.24 7.99221,-19.626 -0.002,-17.377 -16.9143,-30.7701165 -36.84769,-30.7731165 z m 0,18.687 c 8.42273,0 15.04472,5.694 15.04472,12.97 0,7.272 -6.62199,12.97 -15.04472,12.968 -8.42272,-0.002 -15.00768,-5.696 -15.01,-12.97 0,-7.273 6.58843,-12.97 15.01,-12.968 z m 10.67018,43.22 c 40.0606,10.188 57.35508,64.686 67.26607,101.56 17.34771,64.56 52.83241,82.98 61.37086,111.25 -0.37843,0.633 -1.1596,1.286 -2.42335,2.408 -3.08417,2.74 -10.20263,6.216 -18.98643,8.906 -8.52457,2.61 -18.51657,4.614 -27.99243,6.124 -2.0021,-38.024 -39.07575,-53.55 -38.47975,-107.47 0.69784,-63.043 -19.89374,-103.352 -45.71279,-121.78 1.6989,-0.233 3.33993,-0.57 4.9555,-1 z M 42.718574,330.063 c 1.409574,12.736 13.822621,22.686 28.932144,22.688 10.903946,0 20.416839,-5.173 25.390849,-12.844 -18.50037,-2.11 -35.671019,-5.08 -50.705318,-8.875 -1.226722,-0.31 -2.418727,-0.65 -3.616517,-0.97 z" />
    <g
       clip-path="url(#clipPath4935)"
       style="fill:#000000"
       transform="matrix(0.73524151,0,0,0.73524151,-84.443651,-31.24899)"
       id="g4887">
      <path
         style="opacity:0;fill:#000000"
         inkscape:connector-curvature="0"
         d="M 0,0 H 512 V 512 H 0 Z"
         id="path4875" />
      <g
         style="fill:#000000"
         class=""
         id="g4877">
        <path
           style="fill:#000000"
           inkscape:connector-curvature="0"
           d="M 256,32 A 224,224 0 0 0 32,256 224,224 0 0 0 256,480 224,224 0 0 0 479.672,262.55 c -15.468,4.148 -0.306,0.22 -16.467,4.51 -9.1,-2.965 -28.42,10.264 -29.197,10.264 -1.756,0 -14.65,-49.66 -14.65,-49.66 L 381.08,208 H 368 l -1.316,6.32 30.2,28.444 -47.76,20.718 -35.466,-49.162 -5.24,2.328 11.21,36.3 42.84,23.177 -42.84,50.568 1.403,35.82 -31.276,67.182 -52.168,-6.716 -16,-88.843 -3.094,-33.43 -71.517,-3.838 -9.258,-60.77 32.314,-35.827 54.782,-6.32 40.034,21.772 36.93,-9.72 c -1.112,-18.374 0.05,-12.54 -1.112,-18.374 l -19.666,-0.7 -1.053,-10.184 -5.97,-2.107 -2.81,12.64 -9.48,-0.526 -11.94,-26.514 -8.43,2.81 10.185,22.475 -9.13,3.16 -13.694,-20.718 -8.428,-1.406 -21.773,2.81 -18.26,23.177 -18.613,1.406 -1.405,-34.064 24.23,-1.757 2.108,-10.184 -5.795,-5.618 -0.174,-3.69 16.182,-7.94 11.56,-2.944 19.665,-6.848 6.32,-7.375 3.512,7.375 22.474,2.81 8.78,-9.13 5.97,-24.582 -6.673,-2.81 -11.238,16.857 -8.43,-9.834 -11.586,14.75 -14.4,2.458 -0.7,-10.184 11.236,-23.88 31.606,-13.694 43.894,-3.16 3.864,13.344 c 0,0 -4.916,13.344 -5.97,13.695 -0.138,0.045 0.428,1.754 1.464,4.565 h 31.195 l 14.047,-11.59 29.484,-9.138 A 224,224 0 0 0 256,32 Z m -110.902,37.465 6.144,1.053 c 0,0 1.756,8.076 0.352,10.007 -1.405,1.932 -10.885,7.903 -10.885,7.903 l -6.148,-12.115 10.536,-6.848 z m 41.086,11.588 8.252,19.49 3.337,16.68 c 0,0 -11.588,5.793 -12.466,6.496 -0.878,0.7 -6.147,-8.077 -6.147,-8.077 l -1.93,-17.91 2.81,-15.1 6.144,-1.58 z m -12.116,22.474 v 16.155 l -10.007,3.86 -2.107,-7.724 12.115,-12.29 z m 189.104,238.618 -7.365,61.798 -16.164,3.166 c 0,0 4.868,-50.492 7.326,-53.3 l 16.202,-11.665 z"
           id="path4879" />
      </g>
    </g>
  </g>
  <text
     xml:space="preserve"
     style="font-style:normal;font-variant:normal;font-weight:normal;font-stretch:normal;font-size:40px;line-height:1.25;font-family:Optima;-inkscape-font-specification:Optima;letter-spacing:0px;word-spacing:0px;fill:#000000;fill-opacity:1;stroke:none"
     x="948"
     y="-219.30185"
     id="text25"><tspan
       sodipodi:role="line"
       id="tspan23"
       x="948"
       y="-183.41109" /></text>
</svg>
